<svg xmlns="http://www.w3.org/2000/svg" viewBox="0 0 200 120" role="img" aria-hidden="true">
  <rect width="200" height="120" fill="#F8FAFC" rx="8"/>
  <rect x="8" y="22" width="88" height="48" rx="6" fill="#E2E8F0" stroke="#94A3B8" stroke-width="2"/>
  <rect x="16" y="30" width="72" height="28" rx="4" fill="#FFFFFF"/>
  <text x="52" y="50" text-anchor="middle" font-family="system-ui,sans-serif" font-size="13" font-weight="800" fill="#059669">trade</text><rect x="104" y="22" width="88" height="48" rx="6" fill="#E2E8F0" stroke="#94A3B8" stroke-width="2"/>
  <rect x="112" y="30" width="72" height="28" rx="4" fill="#FFFFFF"/>
  <text x="148" y="50" text-anchor="middle" font-family="system-ui,sans-serif" font-size="13" font-weight="800" fill="#059669">user</text><rect x="8" y="76" width="88" height="38" rx="6" fill="#E2E8F0" stroke="#94A3B8" stroke-width="2"/>
  <rect x="16" y="84" width="72" height="18" rx="4" fill="#FFFFFF"/>
  <text x="52" y="104" text-anchor="middle" font-family="system-ui,sans-serif" font-size="13" font-weight="800" fill="#94A3B8">news</text><rect x="72" y="78" width="32" height="22" rx="11" fill="#FEE2E2"/>
  <text x="88" y="94" text-anchor="middle" font-family="system-ui,sans-serif" font-size="11" font-weight="800" fill="#B91C1C">X</text><rect x="104" y="76" width="88" height="38" rx="6" fill="#E2E8F0" stroke="#94A3B8" stroke-width="2"/>
  <rect x="112" y="84" width="72" height="18" rx="4" fill="#FFFFFF"/>
  <text x="148" y="104" text-anchor="middle" font-family="system-ui,sans-serif" font-size="13" font-weight="800" fill="#059669">price</text><rect x="130" y="78" width="32" height="22" rx="11" fill="#D1FAE5"/>
  <text x="146" y="94" text-anchor="middle" font-family="system-ui,sans-serif" font-size="11" font-weight="800" fill="#047857">OK</text>
</svg>