<svg xmlns="http://www.w3.org/2000/svg" viewBox="0 0 200 120" role="img" aria-hidden="true">
  <rect width="200" height="120" fill="#F8FAFC" rx="8"/>
  <rect x="4" y="36" width="50" height="52" rx="6" fill="#E2E8F0" stroke="#94A3B8" stroke-width="2"/>
  <rect x="12" y="44" width="34" height="32" rx="4" fill="#FFFFFF"/>
  <text x="29" y="64" text-anchor="middle" font-family="system-ui,sans-serif" font-size="13" font-weight="800" fill="#CBD5E1">ETL</text><rect x="58" y="36" width="50" height="52" rx="6" fill="#E2E8F0" stroke="#94A3B8" stroke-width="2"/>
  <rect x="66" y="44" width="34" height="32" rx="4" fill="#FFFFFF"/>
  <text x="83" y="64" text-anchor="middle" font-family="system-ui,sans-serif" font-size="13" font-weight="800" fill="#CBD5E1">logs</text><path d="M112 62 H124 M124 62 L119 57 M124 62 L119 67" stroke="#64748B" stroke-width="2.5" fill="none"/><rect x="130" y="22" width="66" height="86" rx="8" fill="#ECFDF5" stroke="#059669" stroke-width="3"/><rect x="134" y="26" width="58" height="78" rx="6" fill="#E2E8F0" stroke="#94A3B8" stroke-width="2"/>
  <rect x="142" y="34" width="42" height="58" rx="4" fill="#FFFFFF"/>
  <text x="163" y="54" text-anchor="middle" font-family="system-ui,sans-serif" font-size="13" font-weight="800" fill="#059669">UI</text><rect x="148" y="6" width="59" height="22" rx="11" fill="#D1FAE5"/>
  <text x="177.5" y="22" text-anchor="middle" font-family="system-ui,sans-serif" font-size="11" font-weight="800" fill="#047857">-time</text>
</svg>